<svg xmlns="http://www.w3.org/2000/svg" viewBox="0 0 800 500">
  <defs>
    <linearGradient id="g" x1="0" y1="0" x2="1" y2="1">
      <stop offset="0" stop-color="#1a2210"/>
      <stop offset="1" stop-color="#0b0a08"/>
    </linearGradient>
  </defs>
  <rect width="800" height="500" fill="url(#g)"/>
  <rect x="40" y="40" width="720" height="52" rx="8" fill="#12110d" stroke="#2a281f"/>
  <circle cx="68" cy="66" r="7" fill="#c9f24e" opacity="0.7"/>
  <circle cx="92" cy="66" r="7" fill="#97907c" opacity="0.4"/>
  <circle cx="116" cy="66" r="7" fill="#97907c" opacity="0.4"/>
  <rect x="40" y="120" width="440" height="26" rx="4" fill="#ede8dc" opacity="0.85"/>
  <rect x="40" y="160" width="320" height="14" rx="4" fill="#97907c" opacity="0.5"/>
  <rect x="40" y="210" width="340" height="200" rx="10" fill="#12110d" stroke="#2a281f"/>
  <rect x="400" y="210" width="360" height="94" rx="10" fill="#12110d" stroke="#2a281f"/>
  <rect x="400" y="316" width="360" height="94" rx="10" fill="#12110d" stroke="#2a281f"/>
  <rect x="64" y="238" width="120" height="10" rx="3" fill="#c9f24e" opacity="0.8"/>
  <rect x="64" y="262" width="280" height="8" rx="3" fill="#97907c" opacity="0.45"/>
  <rect x="64" y="280" width="240" height="8" rx="3" fill="#97907c" opacity="0.45"/>
  <rect x="64" y="298" width="260" height="8" rx="3" fill="#97907c" opacity="0.45"/>
  <text x="40" y="470" font-family="monospace" font-size="16" fill="#97907c">screenshot de exemplo — troque por uma captura real em frontend/public/sandboxes/</text>
</svg>
